<svg width="325" height="326" viewBox="0 0 325 326" fill="none" xmlns="http://www.w3.org/2000/svg">
<path fill-rule="evenodd" clip-rule="evenodd" d="M163.908 3.92111L162.469 0L161.085 3.94063L139.589 65.1217V64.6178H1.5C0.671573 64.6178 0 65.2894 0 66.1178V206.712V238.459V280.183C0 281.012 0.671573 281.683 1.5 281.683H125.222V322.222H96.8005C95.972 322.222 95.3005 322.894 95.3005 323.722C95.3005 324.551 95.972 325.222 96.8005 325.222H231.372C232.201 325.222 232.872 324.551 232.872 323.722C232.872 322.894 232.201 322.222 231.372 322.222H199.778V281.683H323.5C324.328 281.683 325 281.012 325 280.183V238.459V206.712V66.1178C325 65.2894 324.328 64.6178 323.5 64.6178H186.502V65.491L163.908 3.92111ZM3 67.6178H138.712L131.131 89.1953L119.678 117.726L119.671 117.742L119.665 117.757L108.596 147.226L108.594 147.231L97.0997 178.18L86.349 205.212H3V67.6178ZM123.109 117.231L133.462 91.442C139.03 92.5533 144.295 93.3676 149.43 93.8868L145.86 121.52C138.827 120.616 131.381 119.191 123.109 117.231ZM148.839 121.874L152.42 94.1568C158.622 94.6491 164.681 94.704 170.91 94.3249L173.996 122.293C165.628 122.952 157.512 122.821 148.839 121.874ZM152.805 91.1779C158.765 91.6443 164.591 91.6972 170.58 91.3394L162.383 17.0513L152.805 91.1779ZM176.985 122.026L173.904 94.1105C179.938 93.6143 186.174 92.7194 192.888 91.4289L203.787 117.243C193.994 119.588 185.319 121.191 176.985 122.026ZM207.238 117.701L195.192 89.1733L187.282 67.6178H322V205.212H242.21L230.719 177.753L230.712 177.735L218.397 147.207L207.259 117.754L207.249 117.728L207.238 117.701ZM241.48 208.212H322V236.959H3V208.212H87.0885C104.561 214.918 119.857 219.615 134.256 222.345C152.347 225.776 168.988 226.097 186.725 223.431C203.351 220.931 220.908 215.812 241.48 208.212ZM3 239.959H322V278.683H198.278H126.722H3V239.959ZM133.253 219.094C119.855 216.432 105.573 212.042 89.3221 205.854L99.372 180.584C113.409 185.186 125.576 188.477 136.951 190.473L133.253 219.094ZM137.336 187.494C126.227 185.536 114.288 182.312 100.448 177.78L110.915 149.597C122.208 152.998 132.079 155.474 141.272 157.032L137.336 187.494ZM140.297 187.989L144.235 157.506C151.068 158.532 157.562 159.035 164.035 159.02C168.655 159.008 173.258 158.732 177.958 158.196L181.301 188.496C175.161 189.315 169.237 189.745 163.335 189.784C155.77 189.834 148.225 189.241 140.297 187.989ZM164.028 156.02C168.532 156.009 173.026 155.74 177.629 155.214L174.325 125.276C165.718 125.96 157.372 125.826 148.455 124.849L144.62 154.53C151.344 155.542 157.704 156.035 164.028 156.02ZM184.273 188.072L180.935 157.824C191.605 156.373 202.894 153.612 216.123 149.59L227.331 177.372C210.832 182.56 197.034 186.135 184.273 188.072ZM180.606 154.841C190.975 153.425 202.012 150.737 215.031 146.786L204.922 120.055C194.833 122.486 185.899 124.145 177.314 125.007L180.606 154.841ZM184.602 191.057C197.683 189.08 211.75 185.424 228.473 180.157L239.223 205.846C219.915 212.927 203.388 217.74 187.821 220.225L184.602 191.057ZM181.63 191.479L184.852 220.672C168.44 222.996 152.948 222.693 136.205 219.656L139.912 190.966C147.951 192.231 155.634 192.835 163.354 192.784C169.372 192.745 175.402 192.307 181.63 191.479ZM141.656 154.054L145.476 124.494C138.221 123.562 130.541 122.086 122.008 120.053L111.967 146.781C123.061 150.116 132.712 152.531 141.656 154.054ZM173.575 91.1275C179.363 90.655 185.346 89.8071 191.781 88.5861L165.345 16.5455L173.575 91.1275ZM149.815 90.9105L159.183 18.4039L134.522 88.5938C139.85 89.6443 144.894 90.416 149.815 90.9105ZM128.222 322.222V281.683H196.778V322.222H128.222ZM168.445 260.228C168.445 263.62 165.744 266.298 162.5 266.298C159.256 266.298 156.556 263.62 156.556 260.228C156.556 256.836 159.256 254.158 162.5 254.158C165.744 254.158 168.445 256.836 168.445 260.228ZM171.445 260.228C171.445 265.238 167.44 269.298 162.5 269.298C157.56 269.298 153.556 265.238 153.556 260.228C153.556 255.219 157.56 251.158 162.5 251.158C167.44 251.158 171.445 255.219 171.445 260.228Z" fill="white"/>
</svg>
