<svg width="160" height="52" viewBox="0 0 160 52" fill="none" xmlns="http://www.w3.org/2000/svg">
<path d="M50.0771 0H27.9434V5.46304H50.0771V0Z" fill="white"/>
<path d="M50.0771 8.27319H27.9434V13.7362H50.0771V8.27319Z" fill="white"/>
<path d="M50.0771 16.5242H27.9434V21.9872H50.0771V16.5242Z" fill="white"/>
<path d="M5.49387 0H0V16.524V22.0095H5.49387H22.1337V16.524H5.49387V0Z" fill="white"/>
<path d="M102.913 0V8.27325H91.7893V0H86.2954V8.11588V13.8937V22.0095H91.7893V13.7363H102.913V22.0095H108.429V13.8937V8.11588V0H102.913Z" fill="white"/>
<path d="M75.8509 12.0502L63.1675 5.12582C62.0597 4.51881 61.3589 3.37225 61.3589 2.11328V0H55.865V2.11328C55.865 5.37312 57.6511 8.36318 60.5223 9.91441L73.2057 16.8388C74.3135 17.4458 75.0144 18.5923 75.0144 19.8513V22.0095H80.5083V19.8513C80.4856 16.5915 78.7222 13.6014 75.8509 12.0502Z" fill="white"/>
<path d="M12.9321 51.9326H0V29.8107L12.9547 29.6533C19.1268 29.6533 24.1685 34.6443 24.1685 40.8042C24.1685 46.9642 19.1268 51.9326 12.9321 51.9326ZM5.53908 46.4246H12.9547C16.0746 46.4246 18.6068 43.9067 18.6068 40.8042C18.6068 37.7018 16.0746 35.1838 12.9547 35.1838L5.53908 35.2737V46.4246V46.4246Z" fill="white"/>
<path d="M63.4853 51.9326H51.9097C48.9254 51.9326 46.0993 50.7636 43.9967 48.6728C41.8715 46.5595 40.7185 43.7718 40.7185 40.8042C40.7185 37.8366 41.8942 35.0264 43.9967 32.9356C46.1219 30.8223 48.9254 29.6758 51.9097 29.6758H51.9549L56.341 29.7432L63.5305 29.8107L63.4853 35.3187L56.2958 35.2512L51.9097 35.1838C50.3949 35.1838 48.9932 35.7683 47.9306 36.8249C46.868 37.8816 46.2802 39.2979 46.2802 40.8042C46.2802 42.3105 46.868 43.7268 47.9306 44.7835C48.9932 45.8401 50.4176 46.4246 51.9323 46.4246H57.9462V40.8492H63.4853V51.9326Z" fill="white"/>
<path d="M35.2009 29.7207H29.6619V52H35.2009V29.7207Z" fill="white"/>
<path d="M75.6255 29.7207H70.0864V52H75.6255V29.7207Z" fill="white"/>
<path d="M143.382 46.492V29.7207H137.821V52H140.601H143.382H159.999V46.492H143.382Z" fill="white"/>
<path d="M104.451 29.7207H96.0182H90.4791H82.0461V35.2287H90.4791V52H96.0182V35.2287H104.451V29.7207Z" fill="white"/>
<path d="M115.305 29.6533L104.091 51.9326H110.286L118.56 35.4761L126.835 51.9326H133.03L121.838 29.6533H115.305Z" fill="white"/>
</svg>
