<svg width="329" height="328" viewBox="0 0 329 328" fill="none" xmlns="http://www.w3.org/2000/svg">
<path fill-rule="evenodd" clip-rule="evenodd" d="M163.432 0.171103C163.867 -0.0565723 164.386 -0.0570595 164.821 0.169798L327.693 85.0495C328.188 85.3072 328.498 85.8177 328.5 86.3752C328.502 86.9327 328.194 87.4451 327.701 87.7057L257.71 124.718L270.621 131.48L297.39 145.498L327.696 161.368C328.196 161.63 328.507 162.151 328.5 162.715C328.493 163.28 328.17 163.793 327.663 164.042L297.357 178.979L267.051 193.916L257.76 198.496L327.712 236.205C328.196 236.466 328.498 236.971 328.5 237.521C328.502 238.071 328.202 238.578 327.719 238.842L164.847 327.816C164.4 328.061 163.859 328.061 163.411 327.818L1.283 239.587C0.801842 239.325 0.501687 238.822 0.500007 238.274C0.498327 237.727 0.795389 237.221 1.27493 236.957L70.906 198.508L61.6354 193.915L31.4848 178.978L1.33412 164.041C0.824796 163.789 0.501846 163.27 0.500008 162.702C0.498169 162.133 0.817758 161.613 1.32544 161.357L32.1684 145.828L58.5492 131.49L70.9713 124.739L1.29597 87.7042C0.804658 87.4431 0.498266 86.9314 0.500007 86.375C0.501749 85.8186 0.811337 85.3089 1.30428 85.0508L163.432 0.171103ZM74.1379 126.433L62.3782 132.824L85.2993 145.578L96.9853 138.909L74.1379 126.433ZM100.078 140.598L88.364 147.283L111.59 160.207L123.007 153.119L100.078 140.598ZM126.033 154.772L114.59 161.876L137.386 174.56L149.257 167.454L126.033 154.772ZM152.312 169.122L140.413 176.244L163.22 188.935L187.349 175.857L175.995 169.119L164.845 175.183C164.397 175.427 163.856 175.426 163.409 175.182L152.312 169.122ZM179.063 167.451L190.422 174.192L213.535 161.665L202.381 154.77L179.063 167.451ZM205.416 153.119L216.575 160.017L240.145 147.243L228.443 140.596L205.416 153.119ZM231.546 138.909L243.254 145.558L266.735 132.831L254.502 126.425L231.546 138.909ZM269.937 134.508L246.328 147.304L268.897 160.122L293.499 146.846L269.937 134.508ZM296.705 148.525L271.975 161.87L296.744 175.937L323.689 162.656L296.705 148.525ZM293.491 177.54L268.86 163.551L243.998 176.968L266.47 190.858L293.491 177.54ZM263.295 192.423L240.952 178.612L218.389 190.788L240.768 204.068L253.782 197.113C253.796 197.105 253.811 197.098 253.825 197.09L263.295 192.423ZM237.676 205.721L215.31 192.449L192.073 204.989L215.087 217.795L237.676 205.721ZM211.939 219.477L188.94 206.679L167.96 218.001L191.275 230.521L211.939 219.477ZM188.007 232.171L164.147 244.031L141.639 232.205L164.797 219.708L188.007 232.171ZM164.794 216.301L185.83 204.949L163.201 192.357L141.803 203.955L164.794 216.301ZM138.647 205.665L161.631 218.008L138.438 230.524L115.255 218.343L138.647 205.665ZM138.64 202.256L160.094 190.629L137.441 178.024L116.669 190.458L138.64 202.256ZM113.67 192.253L135.484 203.967L112.058 216.663L91.1989 205.704L113.67 192.253ZM113.59 188.804L134.414 176.339L111.674 163.686L90.8676 176.603L113.59 188.804ZM87.9265 178.428L110.591 190.599L88.0882 204.07L74.8372 197.108C74.8267 197.102 74.8161 197.097 74.8055 197.092L65.3827 192.424L87.9265 178.428ZM87.8178 174.965L108.674 162.017L85.3179 149.021L63.1076 161.695L87.8178 174.965ZM60.0334 163.45L84.8767 176.791L62.2193 190.856L35.3409 177.541L60.0334 163.45ZM59.9892 160.021L82.2533 147.316L59.257 134.52L36.0197 147.149L59.9892 160.021ZM32.8416 148.848L56.915 161.775L32.1009 175.935L5.35706 162.686L32.8416 148.848ZM166.326 190.663L188.962 203.258L212.301 190.664L190.355 177.64L166.326 190.663ZM193.427 175.975L215.38 189.002L238.007 176.792L216.477 163.483L193.427 175.975ZM219.517 161.835L241.054 175.148L265.783 161.803L243.219 148.989L219.517 161.835ZM74.1573 200.14L87.4384 207.117L111.371 219.691L137.75 233.551L163.43 247.043C163.857 247.267 164.365 247.273 164.796 247.059L191.941 233.566C191.947 233.563 191.953 233.56 191.959 233.557C191.966 233.553 191.973 233.55 191.981 233.546L215.779 220.826L241.437 207.112L254.486 200.138L323.855 237.534L164.127 324.792L5.12046 238.26L74.1573 200.14ZM164.13 3.1923L5.21483 86.3898L74.8436 123.4L74.8585 123.408L100.781 137.564L126.704 151.72L152.997 166.078L164.13 172.157L175.311 166.076L201.712 151.718L227.742 137.563L253.772 123.407L253.787 123.398L323.773 86.3894L164.13 3.1923Z" fill="white"/>
</svg>
