<svg width="329" height="368" viewBox="0 0 329 368" fill="none" xmlns="http://www.w3.org/2000/svg">
<circle cx="164.11" cy="190.37" r="24.9886" stroke="white" stroke-width="3"/>
<circle cx="25.9854" cy="110.739" r="15.3205" stroke="white" stroke-width="3"/>
<circle cx="303.586" cy="110.739" r="15.3205" stroke="white" stroke-width="3"/>
<circle cx="164.786" cy="350.196" r="15.3205" stroke="white" stroke-width="3"/>
<path fill-rule="evenodd" clip-rule="evenodd" d="M165.25 26.6895L164.5 26.2565L163.75 26.6895L37.414 99.6298L38.914 102.228L164.5 29.7206L290.984 102.746L292.484 100.148L165.25 26.6895ZM24.6914 125.972V271.877L150.77 344.669L149.27 347.267L22.4414 274.042L21.6914 273.609V272.743V125.972H24.6914ZM304.309 126.392V271.877L178.23 344.669L179.73 347.267L306.559 274.042L307.309 273.609V272.743V126.392H304.309ZM289.306 117.22L185.464 176.671L186.955 179.275L290.796 119.823L289.306 117.22ZM143.192 175.965L40.1663 117.428L38.6843 120.036L141.71 178.574L143.192 175.965ZM166.53 131.035C166.53 130.207 165.859 129.535 165.03 129.535C164.202 129.535 163.53 130.207 163.53 131.035V164.772H166.53V131.035ZM140.522 200.6L105.168 218.164C104.426 218.532 104.124 219.433 104.492 220.175C104.861 220.916 105.761 221.219 106.503 220.85L141.857 203.286L140.522 200.6ZM185.477 203.252L216.885 220.816C217.608 221.221 218.522 220.962 218.926 220.239C219.331 219.516 219.072 218.602 218.349 218.198L186.942 200.634L185.477 203.252ZM163.53 215.962V334.546H166.53V215.962H163.53Z" fill="white"/>
<path fill-rule="evenodd" clip-rule="evenodd" d="M165.798 0.211164C165.326 -0.0694699 164.739 -0.0704491 164.267 0.20861L129.302 20.8697C128.589 21.2911 128.353 22.211 128.774 22.9242C129.195 23.6374 130.115 23.8739 130.829 23.4525L165.027 3.24403L198.963 23.4499C199.675 23.8737 200.595 23.6403 201.019 22.9285C201.443 22.2167 201.21 21.2961 200.498 20.8722L165.798 0.211164ZM2 243.966C2.82843 243.966 3.5 244.638 3.5 245.466V285.392L38.0772 305.356C38.7947 305.77 39.0405 306.687 38.6263 307.405C38.2121 308.122 37.2947 308.368 36.5772 307.954L1.25 287.557C0.785898 287.289 0.5 286.794 0.5 286.258V245.466C0.5 244.638 1.17157 243.966 2 243.966ZM327 243.966C327.829 243.966 328.5 244.638 328.5 245.466V286.258C328.5 286.794 328.214 287.289 327.75 287.557L292.423 307.954C291.705 308.368 290.788 308.122 290.374 307.405C289.96 306.687 290.205 305.77 290.923 305.356L325.5 285.392V245.466C325.5 244.638 326.172 243.966 327 243.966Z" fill="white"/>
</svg>
